<?xml version="1.0" encoding="UTF-8" standalone="no"?>
<!-- Created with Inkscape (http://www.inkscape.org/) -->

<svg
   width="408.37674"
   height="268.58765"
   viewBox="0 0 108.04968 71.063815"
   version="1.1"
   id="svg5"
   sodipodi:docname="splashlogo.svg"
   inkscape:version="1.2.1 (9c6d41e410, 2022-07-14, custom)"
   xml:space="preserve"
   inkscape:export-filename="splashlogo.png"
   inkscape:export-xdpi="96"
   inkscape:export-ydpi="96"
   xmlns:inkscape="http://www.inkscape.org/namespaces/inkscape"
   xmlns:sodipodi="http://sodipodi.sourceforge.net/DTD/sodipodi-0.dtd"
   xmlns:xlink="http://www.w3.org/1999/xlink"
   xmlns="http://www.w3.org/2000/svg"
   xmlns:svg="http://www.w3.org/2000/svg"><sodipodi:namedview
     id="namedview7"
     pagecolor="#505050"
     bordercolor="#ffffff"
     borderopacity="1"
     inkscape:showpageshadow="0"
     inkscape:pageopacity="0"
     inkscape:pagecheckerboard="1"
     inkscape:deskcolor="#505050"
     inkscape:document-units="mm"
     showgrid="false"
     inkscape:zoom="1.3458333"
     inkscape:cx="-55.356039"
     inkscape:cy="194.67493"
     inkscape:window-width="1920"
     inkscape:window-height="1051"
     inkscape:window-x="1920"
     inkscape:window-y="0"
     inkscape:window-maximized="1"
     inkscape:current-layer="g624" /><defs
     id="defs2"><rect
       x="97.718163"
       y="1559.4004"
       width="1260.0132"
       height="468.66074"
       id="rect6883" /><rect
       x="159.00929"
       y="800.99072"
       width="1031.1232"
       height="516.1756"
       id="rect4217" /><rect
       x="346.25388"
       y="760.86688"
       width="989.72137"
       height="65.386993"
       id="rect4049" /><rect
       x="11.558898"
       y="12.609706"
       width="667.26361"
       height="116.63978"
       id="rect1758" /><rect
       x="175.19817"
       y="177.701"
       width="1499.1957"
       height="623.2049"
       id="rect1514" /><linearGradient
       inkscape:collect="always"
       id="linearGradient14726"><stop
         style="stop-color:#290800;stop-opacity:1;"
         offset="0.02513087"
         id="stop14722" /><stop
         style="stop-color:#080b0b;stop-opacity:1;"
         offset="0.73560208"
         id="stop14724" /></linearGradient><linearGradient
       inkscape:collect="always"
       id="linearGradient14223"><stop
         style="stop-color:#70b13b;stop-opacity:1;"
         offset="0.44240835"
         id="stop14215" /><stop
         style="stop-color:#4b753b;stop-opacity:1;"
         offset="0.82973874"
         id="stop14217" /><stop
         style="stop-color:#686c3b;stop-opacity:1;"
         offset="1"
         id="stop14221" /></linearGradient><linearGradient
       inkscape:collect="always"
       id="linearGradient14146"><stop
         style="stop-color:#686c3b;stop-opacity:1;"
         offset="0.04188482"
         id="stop14144" /><stop
         style="stop-color:#3b6c3b;stop-opacity:1;"
         offset="0.37553781"
         id="stop14142" /><stop
         style="stop-color:#4b753b;stop-opacity:1;"
         offset="0.62565446"
         id="stop14140" /><stop
         style="stop-color:#70b13b;stop-opacity:1;"
         offset="0.82722515"
         id="stop14138" /></linearGradient><linearGradient
       inkscape:collect="always"
       id="linearGradient13164"><stop
         style="stop-color:#4e201d;stop-opacity:1;"
         offset="0.63612562"
         id="stop13160" /><stop
         style="stop-color:#080b0b;stop-opacity:1;"
         offset="1"
         id="stop13162" /></linearGradient><linearGradient
       inkscape:collect="always"
       id="linearGradient11169"><stop
         style="stop-color:#704f40;stop-opacity:1;"
         offset="0"
         id="stop11165" /><stop
         style="stop-color:#795239;stop-opacity:1;"
         offset="0.5"
         id="stop11181" /><stop
         style="stop-color:#705522;stop-opacity:1;"
         offset="1"
         id="stop11167" /></linearGradient><linearGradient
       inkscape:collect="always"
       id="linearGradient2197"><stop
         style="stop-color:#648c9f;stop-opacity:1;"
         offset="0.04482761"
         id="stop2195" /><stop
         style="stop-color:#848c64;stop-opacity:1;"
         offset="0.94137931"
         id="stop2193" /></linearGradient><linearGradient
       inkscape:collect="always"
       id="linearGradient2034"><stop
         style="stop-color:#c38e00;stop-opacity:1;"
         offset="0"
         id="stop2030" /><stop
         style="stop-color:#d79900;stop-opacity:1;"
         offset="0.19999999"
         id="stop2038" /><stop
         style="stop-color:#a29700;stop-opacity:1;"
         offset="0.50613111"
         id="stop2164" /><stop
         style="stop-color:#0094e0;stop-opacity:1;"
         offset="1"
         id="stop2032" /></linearGradient><rect
       x="175.19817"
       y="177.701"
       width="1499.1957"
       height="623.2049"
       id="rect1514-6" /><filter
       inkscape:collect="always"
       style="color-interpolation-filters:sRGB"
       id="filter2166"
       x="-0.020745726"
       y="-0.012484803"
       width="1.0414916"
       height="1.0249696"><feGaussianBlur
         inkscape:collect="always"
         stdDeviation="0.020629531"
         id="feGaussianBlur2168" /></filter><linearGradient
       inkscape:collect="always"
       xlink:href="#linearGradient11169"
       id="linearGradient11173"
       x1="101.14228"
       y1="81.92334"
       x2="79.836845"
       y2="144.20076"
       gradientUnits="userSpaceOnUse"
       gradientTransform="matrix(0.78091597,0.09275836,-0.09275836,0.78091597,3.9411333,75.724003)" /><linearGradient
       inkscape:collect="always"
       xlink:href="#linearGradient14146"
       id="linearGradient11191"
       x1="112.07185"
       y1="54.628609"
       x2="182.33669"
       y2="54.394482"
       gradientUnits="userSpaceOnUse"
       gradientTransform="matrix(1.1286443,0.45083014,-0.45083014,1.1286443,-7.1995931,18.771655)" /><linearGradient
       inkscape:collect="always"
       xlink:href="#linearGradient14146"
       id="linearGradient11199"
       gradientUnits="userSpaceOnUse"
       gradientTransform="matrix(-1.2028497,0.17389182,0.17389182,1.2028497,215.41942,45.214671)"
       x1="112.07185"
       y1="54.628609"
       x2="182.33669"
       y2="54.394482" /><linearGradient
       inkscape:collect="always"
       xlink:href="#linearGradient14146"
       id="linearGradient14064"
       gradientUnits="userSpaceOnUse"
       gradientTransform="matrix(1.2144367,-0.04721515,0.04721515,1.2144367,-47.792495,69.290423)"
       x1="112.07185"
       y1="54.628609"
       x2="182.33669"
       y2="54.394482" /><linearGradient
       inkscape:collect="always"
       xlink:href="#linearGradient14146"
       id="linearGradient14068"
       gradientUnits="userSpaceOnUse"
       gradientTransform="matrix(-1.116596,-0.47989487,-0.47989487,1.116596,246.40299,123.89816)"
       x1="112.07185"
       y1="54.628609"
       x2="182.33669"
       y2="54.394482" /><linearGradient
       inkscape:collect="always"
       xlink:href="#linearGradient14223"
       id="linearGradient14213"
       x1="135.31755"
       y1="83.240799"
       x2="135.31755"
       y2="99.878761"
       gradientUnits="userSpaceOnUse"
       gradientTransform="matrix(0.78091597,0.09275836,0.09275836,-0.78091597,-22.873362,205.56664)" /><linearGradient
       inkscape:collect="always"
       xlink:href="#linearGradient14223"
       id="linearGradient14227"
       gradientUnits="userSpaceOnUse"
       gradientTransform="matrix(0.74008178,0.26591883,0.26591883,-0.74008178,-35.884755,177.97154)"
       x1="135.31755"
       y1="83.240799"
       x2="135.31755"
       y2="99.878761" /><linearGradient
       inkscape:collect="always"
       xlink:href="#linearGradient14726"
       id="linearGradient14596"
       gradientUnits="userSpaceOnUse"
       x1="267.83929"
       y1="35.657501"
       x2="267.83929"
       y2="180.72437"
       gradientTransform="matrix(0.78091597,0.09275836,-0.09275836,0.78091597,5.3977343,77.573279)" /><linearGradient
       inkscape:collect="always"
       xlink:href="#linearGradient13164"
       id="linearGradient3507"
       gradientUnits="userSpaceOnUse"
       x1="912.09601"
       y1="260.9657"
       x2="912.09601"
       y2="419.1329" /><linearGradient
       inkscape:collect="always"
       xlink:href="#linearGradient2034"
       id="linearGradient3513"
       gradientUnits="userSpaceOnUse"
       gradientTransform="translate(3.8401408e-5,37.239425)"
       x1="904.37671"
       y1="228.96518"
       x2="904.37671"
       y2="355.30118" /><linearGradient
       inkscape:collect="always"
       xlink:href="#linearGradient2197"
       id="linearGradient3515"
       gradientUnits="userSpaceOnUse"
       gradientTransform="translate(3.8401408e-5,37.239425)"
       x1="668.98712"
       y1="234.32773"
       x2="1187.1327"
       y2="357.27069" /><rect
       x="97.718163"
       y="1559.4004"
       width="608.2832"
       height="507.37753"
       id="rect7872" /></defs><g
     inkscape:label="Layer 1"
     inkscape:groupmode="layer"
     id="layer1"
     transform="translate(-38.465351,-102.07497)"><path
       d="m 705.90069,386.01259 c -10.752,0 -24.576,-9.408 -30.528,-20.736 l -1.92,0.192 c -0.768,6.912 -2.88,14.016 -4.416,19.776 l 0.384,0.576 c 0,0 12.48,8.64 34.944,8.64 23.616,0 41.856,-14.4 41.856,-36.672 0,-22.272 -19.008,-32.448 -34.368,-38.4 -9.792,-3.648 -23.424,-9.216 -23.424,-25.152 0,-6.912 3.84,-14.592 8.832,-17.28 3.264,-1.728 7.296,-2.304 11.712,-2.304 10.56,0 20.928,8.256 26.112,20.16 l 1.92,-0.192 c 0.768,-6.912 2.688,-13.44 4.416,-19.2 l -0.384,-0.576 c 0,0 -8.064,-8.64 -30.528,-8.64 -5.184,0 -10.944,0.96 -16.512,3.264 -11.328,4.8 -21.12,15.936 -21.12,29.952 0,20.16 17.088,29.568 33.024,36.288 12.48,5.184 22.464,11.52 22.464,27.84 0,14.4 -11.136,22.464 -22.464,22.464 z"
       style="font-size:192px;line-height:1.25;font-family:'Linux Biolinum O';-inkscape-font-specification:'Linux Biolinum O, Normal';text-align:center;letter-spacing:-20px;white-space:pre;fill:url(#linearGradient3507);fill-opacity:1;stroke:none;stroke-width:3.10329;stroke-linecap:round;stroke-linejoin:round;stroke-dasharray:none;filter:url(#filter2166)"
       id="path10625"
       transform="matrix(0.49116683,0,0,0.49116683,-258.17509,-21.393654)" /><g
       inkscape:groupmode="layer"
       id="g14577"
       inkscape:label="BG Graphics Dropshadow"
       style="display:inline"
       transform="matrix(0.57608724,0,0,0.57608724,47.063158,35.525597)" /><g
       inkscape:groupmode="layer"
       id="layer2"
       inkscape:label="BG Graphics"
       style="display:inline"
       transform="matrix(0.57608724,0,0,0.57608724,48.892235,37.354674)"><g
         id="g624"
         transform="rotate(-10.206732,100.83309,238.93116)"><path
           id="path14549"
           style="display:inline;fill:url(#linearGradient14596);fill-opacity:1;stroke:none;stroke-width:0.208397;stroke-linecap:butt;stroke-linejoin:miter;stroke-dasharray:none;stroke-opacity:1"
           inkscape:label="CocoTree 1"
           d="m 10.13287,95.894021 c 0,0 16.847745,18.402419 29.926133,19.729599 7.806926,0.79222 15.254367,4.01061 22.385368,7.28545 10.76018,4.9415 30.350275,18.4569 30.350275,18.4569 0,0 -19.75119,-25.19492 -33.339117,-32.87106 C 44.681081,100.14849 10.13287,95.894021 10.13287,95.894021 Z m 82.661776,45.471949 c 0,0 23.135414,-5.58477 34.952204,-6.3356 7.83121,-0.49758 15.93781,-0.82899 23.50899,1.23322 12.68349,3.45468 35.01313,-7.67558 35.01313,-7.67558 0,0 -33.77408,-8.4272 -50.55964,-5.93888 -15.43754,2.28851 -42.914674,18.7168 -42.914674,18.7168 z m 0,0 c 0,0 0.25665,0.0639 0.33112,0.0823 -0.12087,-0.0144 -0.24035,-0.0235 -0.35815,-0.027 0.008,-0.0177 0.019,-0.0377 0.027,-0.0553 z m 0,0 c 0,0 -0.118553,0.0339 -0.193522,0.0548 -0.08076,0.001 -0.160693,0.004 -0.239874,0.0108 -0.11661,-0.0538 -0.233408,-0.10114 -0.349692,-0.14304 0.419742,0.0408 0.783088,0.0775 0.783088,0.0775 z m 0,0 c 0,0 -22.188016,-10.53367 -41.240388,-11.52016 -18.421212,-0.95379 -50.4016683,15.39374 -53.0008995,15.91248 0,0 21.7911225,-0.0632 35.0804145,2.30075 8.551448,1.52115 17.400238,-6.45743 26.526665,-7.61017 8.57975,-1.08371 23.965355,0.12185 29.990251,0.66771 -1.100051,0.19774 -2.12507,0.92982 -2.974872,2.10579 -9.139572,3.37612 -27.034716,11.56652 -35.211678,26.21199 -6.829041,12.23126 -10.758741,40.62529 -10.758741,40.62529 l 15.075596,6.18048 7.447267,-0.795 c 1.198609,-20.46268 2.926383,-15.6238 9.149277,-41.78573 1.448497,-6.08966 7.327656,-14.26442 12.408013,-21.18677 0.379148,1.28888 1.146411,2.22896 2.316285,2.62214 0.770481,0.25895 1.583329,0.21436 2.383103,-0.0799 0.543489,0.49657 1.195012,0.80433 1.947664,0.87795 2.614033,0.25571 4.949133,-2.67358 5.574753,-6.6154 0.82879,-5.22192 -0.6613,-6.69462 -2.67234,-7.39732 5.705714,1.44665 22.951754,5.95239 31.978194,9.82329 6.86197,2.94269 12.41365,8.65804 19.49085,11.03695 11.82087,3.9734 37.0806,4.97251 37.0806,4.97251 0,0 -30.89003,-24.90817 -49.57661,-29.30199 -13.34263,-3.13729 -41.013434,2.95514 -41.013434,2.95514 z"
           sodipodi:nodetypes="csscsccsscsccccccccccccccscssccscccscscsscsscscc" /><path
           style="fill:url(#linearGradient11173);fill-opacity:1;stroke:none;stroke-width:0.208397;stroke-linecap:butt;stroke-linejoin:miter;stroke-dasharray:none;stroke-opacity:1"
           d="m 39.748763,208.2103 c 0,0 3.929663,-28.39394 10.758709,-40.6252 11.234096,-20.121 40.830627,-28.06831 40.830627,-28.06831 -2.876802,6.29671 -17.511955,22.18197 -19.917027,32.29323 -6.222898,26.16194 -8.376962,22.22764 -9.575567,42.69034 l -19.433362,-3.99001 -2.822224,-0.90012 z"
           id="path414"
           sodipodi:nodetypes="cscscccc"
           inkscape:label="CocoTree 1" /><path
           style="fill:url(#linearGradient11191);fill-opacity:1;stroke:none;stroke-width:0.208398;stroke-linecap:butt;stroke-linejoin:miter;stroke-dasharray:none;stroke-opacity:1"
           d="m 91.338099,139.51679 c 0,0 27.670591,-6.09239 41.013221,-2.95511 18.6866,4.39382 49.57683,29.30176 49.57683,29.30176 0,0 -25.25963,-0.99916 -37.08051,-4.97258 -7.07721,-2.37891 -12.62913,-8.09418 -19.49109,-11.03687 -10.89214,-4.671 -34.018451,-10.3372 -34.018451,-10.3372 z"
           id="path11183"
           sodipodi:nodetypes="cacaac"
           inkscape:label="Leaf 6" /><path
           style="fill:url(#linearGradient11199);fill-opacity:1;stroke:none;stroke-width:0.208398;stroke-linecap:butt;stroke-linejoin:miter;stroke-dasharray:none;stroke-opacity:1"
           d="m 91.338099,139.51679 c 0,0 -22.188263,-10.53368 -41.240655,-11.52017 -18.421232,-0.9538 -50.40136508,15.39354 -53.0006005,15.91229 0,0 21.7909075,-0.0631 35.0802135,2.30088 8.551455,1.52116 17.400315,-6.45758 26.526751,-7.61032 10.796604,-1.36372 32.634291,0.91732 32.634291,0.91732 z"
           id="path11197"
           sodipodi:nodetypes="cscsac"
           inkscape:label="Leaf 5" /><path
           style="fill:url(#linearGradient14064);fill-opacity:1;stroke:none;stroke-width:0.208398;stroke-linecap:butt;stroke-linejoin:miter;stroke-dasharray:none;stroke-opacity:1"
           d="m 91.338099,139.51679 c 0,0 27.477161,-16.4285 42.914721,-18.71701 16.78559,-2.48835 50.55948,5.93897 50.55948,5.93897 0,0 -22.32971,11.13033 -35.01321,7.67565 -7.57119,-2.06221 -15.67751,-1.73085 -23.50874,-1.23327 -11.81678,0.75082 -34.95225,6.33565 -34.95225,6.33565 z"
           id="path14062"
           sodipodi:nodetypes="cacsacc"
           inkscape:label="Leaf 2" /><path
           style="fill:url(#linearGradient14068);fill-opacity:1;stroke:none;stroke-width:0.208398;stroke-linecap:butt;stroke-linejoin:miter;stroke-dasharray:none;stroke-opacity:1"
           d="m 91.338099,139.51679 c 0,0 -19.751145,-25.19488 -33.339088,-32.87104 C 43.224549,98.299321 8.6761013,94.044851 8.6761013,94.044851 c 0,0 16.8479177,18.402379 29.9263207,19.729549 7.806934,0.79223 15.254349,4.01063 22.385357,7.28547 10.76019,4.94149 30.35032,18.45692 30.35032,18.45692 z"
           id="path14066"
           sodipodi:nodetypes="cacsacc"
           inkscape:label="Leaf 1" /><path
           id="path14204"
           style="fill:url(#linearGradient14213);fill-opacity:1;stroke-width:0.208397;stroke-linecap:round;stroke-linejoin:round"
           d="m 96.050866,147.4283 c 0.98723,-6.2202 -1.31558,-7.12132 -3.870121,-7.73713 -3.086495,-0.74404 -5.324023,2.00508 -5.574917,6.61523 -0.228616,4.20071 1.171657,7.47316 3.870123,7.73712 2.614035,0.25572 4.949295,-2.67341 5.574915,-6.61522 z"
           sodipodi:nodetypes="sssss"
           inkscape:label="Coconut 4" /><path
           id="path14225"
           style="fill:url(#linearGradient14227);fill-opacity:1;stroke-width:0.208397;stroke-linecap:round;stroke-linejoin:round"
           d="m 93.064486,148.05276 c 2.36013,-5.83911 0.31881,-7.23479 -2.031944,-8.40906 -2.840262,-1.41878 -5.638479,0.75704 -6.919217,5.19282 -1.167002,4.04182 -0.538144,7.54527 2.03193,8.40905 2.489665,0.83674 5.423574,-1.4925 6.919231,-5.19281 z"
           sodipodi:nodetypes="sssss"
           inkscape:label="Coconut 3" /></g></g><path
       d="m 705.90069,386.01259 c -10.752,0 -24.576,-9.408 -30.528,-20.736 l -1.92,0.192 c -0.768,6.912 -2.88,14.016 -4.416,19.776 l 0.384,0.576 c 0,0 12.48,8.64 34.944,8.64 23.616,0 41.856,-14.4 41.856,-36.672 0,-22.272 -19.008,-32.448 -34.368,-38.4 -9.792,-3.648 -23.424,-9.216 -23.424,-25.152 0,-6.912 3.84,-14.592 8.832,-17.28 3.264,-1.728 7.296,-2.304 11.712,-2.304 10.56,0 20.928,8.256 26.112,20.16 l 1.92,-0.192 c 0.768,-6.912 2.688,-13.44 4.416,-19.2 l -0.384,-0.576 c 0,0 -8.064,-8.64 -30.528,-8.64 -5.184,0 -10.944,0.96 -16.512,3.264 -11.328,4.8 -21.12,15.936 -21.12,29.952 0,20.16 17.088,29.568 33.024,36.288 12.48,5.184 22.464,11.52 22.464,27.84 0,14.4 -11.136,22.464 -22.464,22.464 z"
       style="font-size:192px;line-height:1.25;font-family:'Linux Biolinum O';-inkscape-font-specification:'Linux Biolinum O, Normal';text-align:center;letter-spacing:-20px;white-space:pre;fill:url(#linearGradient3513);stroke:url(#linearGradient3515);stroke-width:3.10348;stroke-linecap:round;stroke-linejoin:round;stroke-dasharray:none;filter:url(#filter2166)"
       id="path13120"
       transform="matrix(0.49116683,0,0,0.49116683,-260.61386,-23.832422)" /></g></svg>
